%TF.GenerationSoftware,KiCad,Pcbnew,7.0.1*%
%TF.CreationDate,2023-09-23T01:25:44+08:00*%
%TF.ProjectId,split70kb,73706c69-7437-4306-9b62-2e6b69636164,rev?*%
%TF.SameCoordinates,Original*%
%TF.FileFunction,Soldermask,Bot*%
%TF.FilePolarity,Negative*%
%FSLAX46Y46*%
G04 Gerber Fmt 4.6, Leading zero omitted, Abs format (unit mm)*
G04 Created by KiCad (PCBNEW 7.0.1) date 2023-09-23 01:25:44*
%MOMM*%
%LPD*%
G01*
G04 APERTURE LIST*
G04 Aperture macros list*
%AMRoundRect*
0 Rectangle with rounded corners*
0 $1 Rounding radius*
0 $2 $3 $4 $5 $6 $7 $8 $9 X,Y pos of 4 corners*
0 Add a 4 corners polygon primitive as box body*
4,1,4,$2,$3,$4,$5,$6,$7,$8,$9,$2,$3,0*
0 Add four circle primitives for the rounded corners*
1,1,$1+$1,$2,$3*
1,1,$1+$1,$4,$5*
1,1,$1+$1,$6,$7*
1,1,$1+$1,$8,$9*
0 Add four rect primitives between the rounded corners*
20,1,$1+$1,$2,$3,$4,$5,0*
20,1,$1+$1,$4,$5,$6,$7,0*
20,1,$1+$1,$6,$7,$8,$9,0*
20,1,$1+$1,$8,$9,$2,$3,0*%
%AMHorizOval*
0 Thick line with rounded ends*
0 $1 width*
0 $2 $3 position (X,Y) of the first rounded end (center of the circle)*
0 $4 $5 position (X,Y) of the second rounded end (center of the circle)*
0 Add line between two ends*
20,1,$1,$2,$3,$4,$5,0*
0 Add two circle primitives to create the rounded ends*
1,1,$1,$2,$3*
1,1,$1,$4,$5*%
%AMRotRect*
0 Rectangle, with rotation*
0 The origin of the aperture is its center*
0 $1 length*
0 $2 width*
0 $3 Rotation angle, in degrees counterclockwise*
0 Add horizontal line*
21,1,$1,$2,0,0,$3*%
G04 Aperture macros list end*
%ADD10C,1.701800*%
%ADD11C,3.987800*%
%ADD12HorizOval,2.500000X-0.604462X-0.948815X0.604462X0.948815X0*%
%ADD13HorizOval,2.500000X-0.019724X-0.289328X0.019724X0.289328X0*%
%ADD14HorizOval,2.500000X-0.997887X-0.519467X0.997887X0.519467X0*%
%ADD15HorizOval,2.500000X-0.161746X-0.240704X0.161746X0.240704X0*%
%ADD16R,1.200000X1.400000*%
%ADD17R,1.600000X1.600000*%
%ADD18R,1.200000X1.200000*%
%ADD19C,1.600000*%
%ADD20C,1.500000*%
%ADD21RotRect,1.200000X2.500000X240.000000*%
%ADD22RoundRect,0.250000X0.250000X0.475000X-0.250000X0.475000X-0.250000X-0.475000X0.250000X-0.475000X0*%
%ADD23RoundRect,0.250000X-0.475000X0.250000X-0.475000X-0.250000X0.475000X-0.250000X0.475000X0.250000X0*%
%ADD24R,0.300000X0.700000*%
%ADD25R,1.000000X0.700000*%
%ADD26O,1.100000X2.600000*%
%ADD27O,1.100000X2.100000*%
%ADD28RotRect,1.600000X1.600000X150.000000*%
%ADD29RotRect,1.200000X1.200000X150.000000*%
%ADD30RoundRect,0.250000X0.450000X-0.262500X0.450000X0.262500X-0.450000X0.262500X-0.450000X-0.262500X0*%
%ADD31RoundRect,0.250000X0.452332X0.258461X-0.002332X0.520961X-0.452332X-0.258461X0.002332X-0.520961X0*%
%ADD32R,0.550000X1.500000*%
%ADD33R,1.500000X0.550000*%
%ADD34RoundRect,0.250000X0.262500X0.450000X-0.262500X0.450000X-0.262500X-0.450000X0.262500X-0.450000X0*%
%ADD35RoundRect,0.250000X0.475000X-0.250000X0.475000X0.250000X-0.475000X0.250000X-0.475000X-0.250000X0*%
%ADD36RotRect,1.700000X1.000000X150.000000*%
G04 APERTURE END LIST*
D10*
%TO.C,K26*%
X121920000Y-40894000D03*
D11*
X127000000Y-40894000D03*
D10*
X132080000Y-40894000D03*
D12*
X123745000Y-37374000D03*
D13*
X129520000Y-36104000D03*
%TD*%
D10*
%TO.C,K10*%
X45440000Y-112492400D03*
D11*
X50520000Y-112492400D03*
D10*
X55600000Y-112492400D03*
D12*
X47265000Y-108972400D03*
D13*
X53040000Y-107702400D03*
%TD*%
D10*
%TO.C,K12*%
X64489200Y-50496000D03*
D11*
X69569200Y-50496000D03*
D10*
X74649200Y-50496000D03*
D12*
X66314200Y-46976000D03*
D13*
X72089200Y-45706000D03*
%TD*%
D10*
%TO.C,K6*%
X45413500Y-36361100D03*
D11*
X50493500Y-36361100D03*
D10*
X55573500Y-36361100D03*
D12*
X47238500Y-32841100D03*
D13*
X53013500Y-31571100D03*
%TD*%
D10*
%TO.C,K22*%
X102566700Y-55213300D03*
D11*
X107646700Y-55213300D03*
D10*
X112726700Y-55213300D03*
D12*
X104391700Y-51693300D03*
D13*
X110166700Y-50423300D03*
%TD*%
D10*
%TO.C,K1*%
X26342300Y-41013900D03*
D11*
X31422300Y-41013900D03*
D10*
X36502300Y-41013900D03*
D12*
X28167300Y-37493900D03*
D13*
X33942300Y-36223900D03*
%TD*%
D10*
%TO.C,K9*%
X45486700Y-93538200D03*
D11*
X50566700Y-93538200D03*
D10*
X55646700Y-93538200D03*
D12*
X47311700Y-90018200D03*
D13*
X53086700Y-88748200D03*
%TD*%
D10*
%TO.C,K32*%
X172088891Y-97343900D03*
D11*
X176488300Y-99883900D03*
D10*
X180887709Y-102423900D03*
D14*
X175429387Y-95207991D03*
D15*
X181065684Y-96995638D03*
%TD*%
D10*
%TO.C,K14*%
X64531000Y-88640100D03*
D11*
X69611000Y-88640100D03*
D10*
X74691000Y-88640100D03*
D12*
X66356000Y-85120100D03*
D13*
X72131000Y-83850100D03*
%TD*%
D10*
%TO.C,K34*%
X178973891Y-123032900D03*
D11*
X183373300Y-125572900D03*
D10*
X187772709Y-128112900D03*
D14*
X182314387Y-120896991D03*
D15*
X187950684Y-122684638D03*
%TD*%
D10*
%TO.C,K8*%
X45403000Y-74323000D03*
D11*
X50483000Y-74323000D03*
D10*
X55563000Y-74323000D03*
D12*
X47228000Y-70803000D03*
D13*
X53003000Y-69533000D03*
%TD*%
D10*
%TO.C,K18*%
X83570000Y-69625000D03*
D11*
X88650000Y-69625000D03*
D10*
X93730000Y-69625000D03*
D12*
X85395000Y-66105000D03*
D13*
X91170000Y-64835000D03*
%TD*%
D10*
%TO.C,K15*%
X64420000Y-107625000D03*
D11*
X69500000Y-107625000D03*
D10*
X74580000Y-107625000D03*
D12*
X66245000Y-104105000D03*
D13*
X72020000Y-102835000D03*
%TD*%
D10*
%TO.C,K2*%
X26393300Y-60024900D03*
D11*
X31473300Y-60024900D03*
D10*
X36553300Y-60024900D03*
D12*
X28218300Y-56504900D03*
D13*
X33993300Y-55234900D03*
%TD*%
D10*
%TO.C,K23*%
X102620000Y-74275000D03*
D11*
X107700000Y-74275000D03*
D10*
X112780000Y-74275000D03*
D12*
X104445000Y-70755000D03*
D13*
X110220000Y-69485000D03*
%TD*%
D10*
%TO.C,K17*%
X83520000Y-50525000D03*
D11*
X88600000Y-50525000D03*
D10*
X93680000Y-50525000D03*
D12*
X85345000Y-47005000D03*
D13*
X91120000Y-45735000D03*
%TD*%
D10*
%TO.C,K5*%
X26392200Y-117163900D03*
D11*
X31472200Y-117163900D03*
D10*
X36552200Y-117163900D03*
D12*
X28217200Y-113643900D03*
D13*
X33992200Y-112373900D03*
%TD*%
D10*
%TO.C,K4*%
X26325400Y-98139500D03*
D11*
X31405400Y-98139500D03*
D10*
X36485400Y-98139500D03*
D12*
X28150400Y-94619500D03*
D13*
X33925400Y-93349500D03*
%TD*%
D10*
%TO.C,K13*%
X64508800Y-69604900D03*
D11*
X69588800Y-69604900D03*
D10*
X74668800Y-69604900D03*
D12*
X66333800Y-66084900D03*
D13*
X72108800Y-64814900D03*
%TD*%
D10*
%TO.C,K30*%
X153343191Y-129842100D03*
D11*
X157742600Y-132382100D03*
D10*
X162142009Y-134922100D03*
D14*
X156683687Y-127706191D03*
D15*
X162319984Y-129493838D03*
%TD*%
D10*
%TO.C,K29*%
X121620000Y-98106700D03*
D11*
X126700000Y-98106700D03*
D10*
X131780000Y-98106700D03*
D12*
X123445000Y-94586700D03*
D13*
X129220000Y-93316700D03*
%TD*%
D10*
%TO.C,K16*%
X83495000Y-31425000D03*
D11*
X88575000Y-31425000D03*
D10*
X93655000Y-31425000D03*
D12*
X85320000Y-27905000D03*
D13*
X91095000Y-26635000D03*
%TD*%
D10*
%TO.C,K33*%
X188348491Y-106711400D03*
D11*
X192747900Y-109251400D03*
D10*
X197147309Y-111791400D03*
D14*
X191688987Y-104575491D03*
D15*
X197325284Y-106363138D03*
%TD*%
D10*
%TO.C,K21*%
X102584600Y-36180400D03*
D11*
X107664600Y-36180400D03*
D10*
X112744600Y-36180400D03*
D12*
X104409600Y-32660400D03*
D13*
X110184600Y-31390400D03*
%TD*%
D10*
%TO.C,K31*%
X162765291Y-113614300D03*
D11*
X167164700Y-116154300D03*
D10*
X171564109Y-118694300D03*
D14*
X166105787Y-111478391D03*
D15*
X171742084Y-113266038D03*
%TD*%
D10*
%TO.C,K25*%
X102561700Y-112447500D03*
D11*
X107641700Y-112447500D03*
D10*
X112721700Y-112447500D03*
D12*
X104386700Y-108927500D03*
D13*
X110161700Y-107657500D03*
%TD*%
D10*
%TO.C,K3*%
X26370000Y-79025000D03*
D11*
X31450000Y-79025000D03*
D10*
X36530000Y-79025000D03*
D12*
X28195000Y-75505000D03*
D13*
X33970000Y-74235000D03*
%TD*%
D10*
%TO.C,K24*%
X102613000Y-93358000D03*
D11*
X107693000Y-93358000D03*
D10*
X112773000Y-93358000D03*
D12*
X104438000Y-89838000D03*
D13*
X110213000Y-88568000D03*
%TD*%
D10*
%TO.C,K19*%
X83527000Y-88626800D03*
D11*
X88607000Y-88626800D03*
D10*
X93687000Y-88626800D03*
D12*
X85352000Y-85106800D03*
D13*
X91127000Y-83836800D03*
%TD*%
D10*
%TO.C,K27*%
X121685200Y-60220100D03*
D11*
X126765200Y-60220100D03*
D10*
X131845200Y-60220100D03*
D12*
X123510200Y-56700100D03*
D13*
X129285200Y-55430100D03*
%TD*%
D10*
%TO.C,K35*%
X169625991Y-139292900D03*
D11*
X174025400Y-141832900D03*
D10*
X178424809Y-144372900D03*
D14*
X172966487Y-137156991D03*
D15*
X178602784Y-138944638D03*
%TD*%
D10*
%TO.C,K20*%
X83449200Y-107638500D03*
D11*
X88529200Y-107638500D03*
D10*
X93609200Y-107638500D03*
D12*
X85274200Y-104118500D03*
D13*
X91049200Y-102848500D03*
%TD*%
D10*
%TO.C,K7*%
X45425000Y-55330800D03*
D11*
X50505000Y-55330800D03*
D10*
X55585000Y-55330800D03*
D12*
X47250000Y-51810800D03*
D13*
X53025000Y-50540800D03*
%TD*%
D10*
%TO.C,K11*%
X64522800Y-31506700D03*
D11*
X69602800Y-31506700D03*
D10*
X74682800Y-31506700D03*
D12*
X66347800Y-27986700D03*
D13*
X72122800Y-26716700D03*
%TD*%
D10*
%TO.C,K28*%
X121633400Y-79075000D03*
D11*
X126713400Y-79075000D03*
D10*
X131793400Y-79075000D03*
D12*
X123458400Y-75555000D03*
D13*
X129233400Y-74285000D03*
%TD*%
D16*
%TO.C,X1*%
X145362000Y-110921500D03*
X145362000Y-108721500D03*
X146962000Y-108721500D03*
X146962000Y-110921500D03*
%TD*%
D17*
%TO.C,D10*%
X54594000Y-116810400D03*
D18*
X52269000Y-116810400D03*
X49119000Y-116810400D03*
D19*
X46794000Y-116810400D03*
%TD*%
D17*
%TO.C,D17*%
X92487900Y-54636300D03*
D18*
X90162900Y-54636300D03*
X87012900Y-54636300D03*
D19*
X84687900Y-54636300D03*
%TD*%
D17*
%TO.C,D19*%
X92480200Y-92730600D03*
D18*
X90155200Y-92730600D03*
X87005200Y-92730600D03*
D19*
X84680200Y-92730600D03*
%TD*%
D20*
%TO.C,J2*%
X167584500Y-82614529D03*
X164084500Y-88676707D03*
D21*
X162469917Y-84973246D03*
X163969917Y-82375169D03*
X165549083Y-92639975D03*
X160469917Y-88437347D03*
%TD*%
D22*
%TO.C,C3*%
X136972000Y-122174000D03*
X135072000Y-122174000D03*
%TD*%
D17*
%TO.C,D4*%
X35271800Y-102339900D03*
D18*
X32946800Y-102339900D03*
X29796800Y-102339900D03*
D19*
X27471800Y-102339900D03*
%TD*%
D17*
%TO.C,D29*%
X130639100Y-102249500D03*
D18*
X128314100Y-102249500D03*
X125164100Y-102249500D03*
D19*
X122839100Y-102249500D03*
%TD*%
D23*
%TO.C,C2*%
X143288300Y-108871500D03*
X143288300Y-110771500D03*
%TD*%
D17*
%TO.C,D28*%
X130632200Y-83531700D03*
D18*
X128307200Y-83531700D03*
X125157200Y-83531700D03*
D19*
X122832200Y-83531700D03*
%TD*%
D17*
%TO.C,D2*%
X35378700Y-64244100D03*
D18*
X33053700Y-64244100D03*
X29903700Y-64244100D03*
D19*
X27578700Y-64244100D03*
%TD*%
D24*
%TO.C,J1*%
X125524000Y-25328000D03*
X126024000Y-25328000D03*
X126524000Y-25328000D03*
X127024000Y-25328000D03*
X127524000Y-25328000D03*
X128024000Y-25328000D03*
X129024000Y-25328000D03*
X129524000Y-25328000D03*
X130024000Y-25328000D03*
X130524000Y-25328000D03*
X131024000Y-25328000D03*
X131524000Y-25328000D03*
D25*
X131624000Y-24028000D03*
D24*
X130774000Y-24028000D03*
X130274000Y-24028000D03*
X129774000Y-24028000D03*
X129274000Y-24028000D03*
X128774000Y-24028000D03*
X128274000Y-24028000D03*
X127774000Y-24028000D03*
X127274000Y-24028000D03*
X126774000Y-24028000D03*
X126274000Y-24028000D03*
D25*
X125424000Y-24028000D03*
D26*
X124204000Y-19558000D03*
D27*
X124204000Y-24918000D03*
D26*
X132844000Y-19558000D03*
D27*
X132844000Y-24918000D03*
%TD*%
D22*
%TO.C,C6*%
X125608000Y-122174000D03*
X123708000Y-122174000D03*
%TD*%
D28*
%TO.C,D35*%
X175537199Y-147666000D03*
D29*
X173523690Y-146503500D03*
X170795710Y-144928500D03*
D19*
X168782201Y-143766000D03*
%TD*%
D30*
%TO.C,R2*%
X159766000Y-101346000D03*
X159766000Y-99521000D03*
%TD*%
D31*
%TO.C,R1*%
X147066048Y-86988650D03*
X145485552Y-86076150D03*
%TD*%
D22*
%TO.C,C7*%
X121798000Y-122174000D03*
X119898000Y-122174000D03*
%TD*%
D17*
%TO.C,D6*%
X54364500Y-40716700D03*
D18*
X52039500Y-40716700D03*
X48889500Y-40716700D03*
D19*
X46564500Y-40716700D03*
%TD*%
D22*
%TO.C,C5*%
X129352000Y-122174000D03*
X127452000Y-122174000D03*
%TD*%
D17*
%TO.C,D22*%
X111154300Y-59626300D03*
D18*
X108829300Y-59626300D03*
X105679300Y-59626300D03*
D19*
X103354300Y-59626300D03*
%TD*%
D17*
%TO.C,D1*%
X35429700Y-45115500D03*
D18*
X33104700Y-45115500D03*
X29954700Y-45115500D03*
D19*
X27629700Y-45115500D03*
%TD*%
D17*
%TO.C,D9*%
X54640700Y-97738600D03*
D18*
X52315700Y-97738600D03*
X49165700Y-97738600D03*
D19*
X46840700Y-97738600D03*
%TD*%
D17*
%TO.C,D13*%
X73473200Y-74056900D03*
D18*
X71148200Y-74056900D03*
X67998200Y-74056900D03*
D19*
X65673200Y-74056900D03*
%TD*%
D32*
%TO.C,U1*%
X150162000Y-106182000D03*
X149362000Y-106182000D03*
X148562000Y-106182000D03*
X147762000Y-106182000D03*
X146962000Y-106182000D03*
X146162000Y-106182000D03*
X145362000Y-106182000D03*
X144562000Y-106182000D03*
X143762000Y-106182000D03*
X142962000Y-106182000D03*
X142162000Y-106182000D03*
D33*
X140462000Y-104482000D03*
X140462000Y-103682000D03*
X140462000Y-102882000D03*
X140462000Y-102082000D03*
X140462000Y-101282000D03*
X140462000Y-100482000D03*
X140462000Y-99682000D03*
X140462000Y-98882000D03*
X140462000Y-98082000D03*
X140462000Y-97282000D03*
X140462000Y-96482000D03*
D32*
X142162000Y-94782000D03*
X142962000Y-94782000D03*
X143762000Y-94782000D03*
X144562000Y-94782000D03*
X145362000Y-94782000D03*
X146162000Y-94782000D03*
X146962000Y-94782000D03*
X147762000Y-94782000D03*
X148562000Y-94782000D03*
X149362000Y-94782000D03*
X150162000Y-94782000D03*
D33*
X151862000Y-96482000D03*
X151862000Y-97282000D03*
X151862000Y-98082000D03*
X151862000Y-98882000D03*
X151862000Y-99682000D03*
X151862000Y-100482000D03*
X151862000Y-101282000D03*
X151862000Y-102082000D03*
X151862000Y-102882000D03*
X151862000Y-103682000D03*
X151862000Y-104482000D03*
%TD*%
D28*
%TO.C,D31*%
X168477499Y-121838000D03*
D29*
X166463990Y-120675500D03*
X163736010Y-119100500D03*
D19*
X161722501Y-117938000D03*
%TD*%
D17*
%TO.C,D18*%
X92543500Y-74235700D03*
D18*
X90218500Y-74235700D03*
X87068500Y-74235700D03*
D19*
X84743500Y-74235700D03*
%TD*%
D34*
%TO.C,R3*%
X157365000Y-104056100D03*
X155540000Y-104056100D03*
%TD*%
D17*
%TO.C,D20*%
X92250000Y-111925000D03*
D18*
X89925000Y-111925000D03*
X86775000Y-111925000D03*
D19*
X84450000Y-111925000D03*
%TD*%
D17*
%TO.C,D8*%
X54303000Y-78659800D03*
D18*
X51978000Y-78659800D03*
X48828000Y-78659800D03*
D19*
X46503000Y-78659800D03*
%TD*%
D17*
%TO.C,D21*%
X111837400Y-40536000D03*
D18*
X109512400Y-40536000D03*
X106362400Y-40536000D03*
D19*
X104037400Y-40536000D03*
%TD*%
D22*
%TO.C,C8*%
X118110000Y-122174000D03*
X116210000Y-122174000D03*
%TD*%
D35*
%TO.C,C1*%
X149215300Y-110591900D03*
X149215300Y-108691900D03*
%TD*%
D17*
%TO.C,D5*%
X35428600Y-121481900D03*
D18*
X33103600Y-121481900D03*
X29953600Y-121481900D03*
D19*
X27628600Y-121481900D03*
%TD*%
D36*
%TO.C,SW1*%
X155315980Y-82733552D03*
X149860020Y-79583552D03*
X153415980Y-86024448D03*
X147960020Y-82874448D03*
%TD*%
D17*
%TO.C,D11*%
X73540400Y-35862300D03*
D18*
X71215400Y-35862300D03*
X68065400Y-35862300D03*
D19*
X65740400Y-35862300D03*
%TD*%
D17*
%TO.C,D27*%
X130740000Y-64516000D03*
D18*
X128415000Y-64516000D03*
X125265000Y-64516000D03*
D19*
X122940000Y-64516000D03*
%TD*%
D17*
%TO.C,D14*%
X73434400Y-92865000D03*
D18*
X71109400Y-92865000D03*
X67959400Y-92865000D03*
D19*
X65634400Y-92865000D03*
%TD*%
D28*
%TO.C,D33*%
X193761499Y-114700500D03*
D29*
X191747990Y-113538000D03*
X189020010Y-111963000D03*
D19*
X187006501Y-110800500D03*
%TD*%
D17*
%TO.C,D26*%
X131002200Y-45269900D03*
D18*
X128677200Y-45269900D03*
X125527200Y-45269900D03*
D19*
X123202200Y-45269900D03*
%TD*%
D17*
%TO.C,D16*%
X92722500Y-35740200D03*
D18*
X90397500Y-35740200D03*
X87247500Y-35740200D03*
D19*
X84922500Y-35740200D03*
%TD*%
D17*
%TO.C,D24*%
X111454700Y-97465500D03*
D18*
X109129700Y-97465500D03*
X105979700Y-97465500D03*
D19*
X103654700Y-97465500D03*
%TD*%
D28*
%TO.C,D30*%
X158571499Y-138094000D03*
D29*
X156557990Y-136931500D03*
X153830010Y-135356500D03*
D19*
X151816501Y-134194000D03*
%TD*%
D22*
%TO.C,C4*%
X133162000Y-122174000D03*
X131262000Y-122174000D03*
%TD*%
D17*
%TO.C,D15*%
X73437600Y-111689000D03*
D18*
X71112600Y-111689000D03*
X67962600Y-111689000D03*
D19*
X65637600Y-111689000D03*
%TD*%
D17*
%TO.C,D25*%
X111624600Y-116650800D03*
D18*
X109299600Y-116650800D03*
X106149600Y-116650800D03*
D19*
X103824600Y-116650800D03*
%TD*%
D28*
%TO.C,D32*%
X177823199Y-105756000D03*
D29*
X175809690Y-104593500D03*
X173081710Y-103018500D03*
D19*
X171068201Y-101856000D03*
%TD*%
D28*
%TO.C,D34*%
X184681199Y-131410000D03*
D29*
X182667690Y-130247500D03*
X179939710Y-128672500D03*
D19*
X177926201Y-127510000D03*
%TD*%
D17*
%TO.C,D23*%
X111690000Y-78486000D03*
D18*
X109365000Y-78486000D03*
X106215000Y-78486000D03*
D19*
X103890000Y-78486000D03*
%TD*%
D17*
%TO.C,D7*%
X54325000Y-59550000D03*
D18*
X52000000Y-59550000D03*
X48850000Y-59550000D03*
D19*
X46525000Y-59550000D03*
%TD*%
D34*
%TO.C,R4*%
X157376500Y-101902600D03*
X155551500Y-101902600D03*
%TD*%
D17*
%TO.C,D12*%
X73455800Y-54715200D03*
D18*
X71130800Y-54715200D03*
X67980800Y-54715200D03*
D19*
X65655800Y-54715200D03*
%TD*%
D17*
%TO.C,D3*%
X35355400Y-83361800D03*
D18*
X33030400Y-83361800D03*
X29880400Y-83361800D03*
D19*
X27555400Y-83361800D03*
%TD*%
M02*
