%TF.GenerationSoftware,KiCad,Pcbnew,7.0.1*%
%TF.CreationDate,2023-09-23T01:26:55+08:00*%
%TF.ProjectId,split70kb,73706c69-7437-4306-9b62-2e6b69636164,rev?*%
%TF.SameCoordinates,Original*%
%TF.FileFunction,Paste,Bot*%
%TF.FilePolarity,Positive*%
%FSLAX46Y46*%
G04 Gerber Fmt 4.6, Leading zero omitted, Abs format (unit mm)*
G04 Created by KiCad (PCBNEW 7.0.1) date 2023-09-23 01:26:55*
%MOMM*%
%LPD*%
G01*
G04 APERTURE LIST*
G04 Aperture macros list*
%AMRoundRect*
0 Rectangle with rounded corners*
0 $1 Rounding radius*
0 $2 $3 $4 $5 $6 $7 $8 $9 X,Y pos of 4 corners*
0 Add a 4 corners polygon primitive as box body*
4,1,4,$2,$3,$4,$5,$6,$7,$8,$9,$2,$3,0*
0 Add four circle primitives for the rounded corners*
1,1,$1+$1,$2,$3*
1,1,$1+$1,$4,$5*
1,1,$1+$1,$6,$7*
1,1,$1+$1,$8,$9*
0 Add four rect primitives between the rounded corners*
20,1,$1+$1,$2,$3,$4,$5,0*
20,1,$1+$1,$4,$5,$6,$7,0*
20,1,$1+$1,$6,$7,$8,$9,0*
20,1,$1+$1,$8,$9,$2,$3,0*%
%AMRotRect*
0 Rectangle, with rotation*
0 The origin of the aperture is its center*
0 $1 length*
0 $2 width*
0 $3 Rotation angle, in degrees counterclockwise*
0 Add horizontal line*
21,1,$1,$2,0,0,$3*%
G04 Aperture macros list end*
%ADD10R,1.200000X1.400000*%
%ADD11R,1.200000X1.200000*%
%ADD12RotRect,1.200000X2.500000X240.000000*%
%ADD13RoundRect,0.250000X0.250000X0.475000X-0.250000X0.475000X-0.250000X-0.475000X0.250000X-0.475000X0*%
%ADD14RoundRect,0.250000X-0.475000X0.250000X-0.475000X-0.250000X0.475000X-0.250000X0.475000X0.250000X0*%
%ADD15R,0.300000X0.700000*%
%ADD16R,1.000000X0.700000*%
%ADD17RotRect,1.200000X1.200000X150.000000*%
%ADD18RoundRect,0.250000X0.450000X-0.262500X0.450000X0.262500X-0.450000X0.262500X-0.450000X-0.262500X0*%
%ADD19RoundRect,0.250000X0.452332X0.258461X-0.002332X0.520961X-0.452332X-0.258461X0.002332X-0.520961X0*%
%ADD20R,0.550000X1.500000*%
%ADD21R,1.500000X0.550000*%
%ADD22RoundRect,0.250000X0.262500X0.450000X-0.262500X0.450000X-0.262500X-0.450000X0.262500X-0.450000X0*%
%ADD23RoundRect,0.250000X0.475000X-0.250000X0.475000X0.250000X-0.475000X0.250000X-0.475000X-0.250000X0*%
%ADD24RotRect,1.700000X1.000000X150.000000*%
G04 APERTURE END LIST*
D10*
%TO.C,X1*%
X145362000Y-110921500D03*
X145362000Y-108721500D03*
X146962000Y-108721500D03*
X146962000Y-110921500D03*
%TD*%
D11*
%TO.C,D10*%
X52269000Y-116810400D03*
X49119000Y-116810400D03*
%TD*%
%TO.C,D17*%
X90162900Y-54636300D03*
X87012900Y-54636300D03*
%TD*%
%TO.C,D19*%
X90155200Y-92730600D03*
X87005200Y-92730600D03*
%TD*%
D12*
%TO.C,J2*%
X162469917Y-84973246D03*
X163969917Y-82375169D03*
X165549083Y-92639975D03*
X160469917Y-88437347D03*
%TD*%
D13*
%TO.C,C3*%
X136972000Y-122174000D03*
X135072000Y-122174000D03*
%TD*%
D11*
%TO.C,D4*%
X32946800Y-102339900D03*
X29796800Y-102339900D03*
%TD*%
%TO.C,D29*%
X128314100Y-102249500D03*
X125164100Y-102249500D03*
%TD*%
D14*
%TO.C,C2*%
X143288300Y-108871500D03*
X143288300Y-110771500D03*
%TD*%
D11*
%TO.C,D28*%
X128307200Y-83531700D03*
X125157200Y-83531700D03*
%TD*%
%TO.C,D2*%
X33053700Y-64244100D03*
X29903700Y-64244100D03*
%TD*%
D15*
%TO.C,J1*%
X125524000Y-25328000D03*
X126024000Y-25328000D03*
X126524000Y-25328000D03*
X127024000Y-25328000D03*
X127524000Y-25328000D03*
X128024000Y-25328000D03*
X129024000Y-25328000D03*
X129524000Y-25328000D03*
X130024000Y-25328000D03*
X130524000Y-25328000D03*
X131024000Y-25328000D03*
X131524000Y-25328000D03*
D16*
X131624000Y-24028000D03*
D15*
X130774000Y-24028000D03*
X130274000Y-24028000D03*
X129774000Y-24028000D03*
X129274000Y-24028000D03*
X128774000Y-24028000D03*
X128274000Y-24028000D03*
X127774000Y-24028000D03*
X127274000Y-24028000D03*
X126774000Y-24028000D03*
X126274000Y-24028000D03*
D16*
X125424000Y-24028000D03*
%TD*%
D13*
%TO.C,C6*%
X125608000Y-122174000D03*
X123708000Y-122174000D03*
%TD*%
D17*
%TO.C,D35*%
X173523690Y-146503500D03*
X170795710Y-144928500D03*
%TD*%
D18*
%TO.C,R2*%
X159766000Y-101346000D03*
X159766000Y-99521000D03*
%TD*%
D19*
%TO.C,R1*%
X147066048Y-86988650D03*
X145485552Y-86076150D03*
%TD*%
D13*
%TO.C,C7*%
X121798000Y-122174000D03*
X119898000Y-122174000D03*
%TD*%
D11*
%TO.C,D6*%
X52039500Y-40716700D03*
X48889500Y-40716700D03*
%TD*%
D13*
%TO.C,C5*%
X129352000Y-122174000D03*
X127452000Y-122174000D03*
%TD*%
D11*
%TO.C,D22*%
X108829300Y-59626300D03*
X105679300Y-59626300D03*
%TD*%
%TO.C,D1*%
X33104700Y-45115500D03*
X29954700Y-45115500D03*
%TD*%
%TO.C,D9*%
X52315700Y-97738600D03*
X49165700Y-97738600D03*
%TD*%
%TO.C,D13*%
X71148200Y-74056900D03*
X67998200Y-74056900D03*
%TD*%
D20*
%TO.C,U1*%
X150162000Y-106182000D03*
X149362000Y-106182000D03*
X148562000Y-106182000D03*
X147762000Y-106182000D03*
X146962000Y-106182000D03*
X146162000Y-106182000D03*
X145362000Y-106182000D03*
X144562000Y-106182000D03*
X143762000Y-106182000D03*
X142962000Y-106182000D03*
X142162000Y-106182000D03*
D21*
X140462000Y-104482000D03*
X140462000Y-103682000D03*
X140462000Y-102882000D03*
X140462000Y-102082000D03*
X140462000Y-101282000D03*
X140462000Y-100482000D03*
X140462000Y-99682000D03*
X140462000Y-98882000D03*
X140462000Y-98082000D03*
X140462000Y-97282000D03*
X140462000Y-96482000D03*
D20*
X142162000Y-94782000D03*
X142962000Y-94782000D03*
X143762000Y-94782000D03*
X144562000Y-94782000D03*
X145362000Y-94782000D03*
X146162000Y-94782000D03*
X146962000Y-94782000D03*
X147762000Y-94782000D03*
X148562000Y-94782000D03*
X149362000Y-94782000D03*
X150162000Y-94782000D03*
D21*
X151862000Y-96482000D03*
X151862000Y-97282000D03*
X151862000Y-98082000D03*
X151862000Y-98882000D03*
X151862000Y-99682000D03*
X151862000Y-100482000D03*
X151862000Y-101282000D03*
X151862000Y-102082000D03*
X151862000Y-102882000D03*
X151862000Y-103682000D03*
X151862000Y-104482000D03*
%TD*%
D17*
%TO.C,D31*%
X166463990Y-120675500D03*
X163736010Y-119100500D03*
%TD*%
D11*
%TO.C,D18*%
X90218500Y-74235700D03*
X87068500Y-74235700D03*
%TD*%
D22*
%TO.C,R3*%
X157365000Y-104056100D03*
X155540000Y-104056100D03*
%TD*%
D11*
%TO.C,D20*%
X89925000Y-111925000D03*
X86775000Y-111925000D03*
%TD*%
%TO.C,D8*%
X51978000Y-78659800D03*
X48828000Y-78659800D03*
%TD*%
%TO.C,D21*%
X109512400Y-40536000D03*
X106362400Y-40536000D03*
%TD*%
D13*
%TO.C,C8*%
X118110000Y-122174000D03*
X116210000Y-122174000D03*
%TD*%
D23*
%TO.C,C1*%
X149215300Y-110591900D03*
X149215300Y-108691900D03*
%TD*%
D11*
%TO.C,D5*%
X33103600Y-121481900D03*
X29953600Y-121481900D03*
%TD*%
D24*
%TO.C,SW1*%
X155315980Y-82733552D03*
X149860020Y-79583552D03*
X153415980Y-86024448D03*
X147960020Y-82874448D03*
%TD*%
D11*
%TO.C,D11*%
X71215400Y-35862300D03*
X68065400Y-35862300D03*
%TD*%
%TO.C,D27*%
X128415000Y-64516000D03*
X125265000Y-64516000D03*
%TD*%
%TO.C,D14*%
X71109400Y-92865000D03*
X67959400Y-92865000D03*
%TD*%
D17*
%TO.C,D33*%
X191747990Y-113538000D03*
X189020010Y-111963000D03*
%TD*%
D11*
%TO.C,D26*%
X128677200Y-45269900D03*
X125527200Y-45269900D03*
%TD*%
%TO.C,D16*%
X90397500Y-35740200D03*
X87247500Y-35740200D03*
%TD*%
%TO.C,D24*%
X109129700Y-97465500D03*
X105979700Y-97465500D03*
%TD*%
D17*
%TO.C,D30*%
X156557990Y-136931500D03*
X153830010Y-135356500D03*
%TD*%
D13*
%TO.C,C4*%
X133162000Y-122174000D03*
X131262000Y-122174000D03*
%TD*%
D11*
%TO.C,D15*%
X71112600Y-111689000D03*
X67962600Y-111689000D03*
%TD*%
%TO.C,D25*%
X109299600Y-116650800D03*
X106149600Y-116650800D03*
%TD*%
D17*
%TO.C,D32*%
X175809690Y-104593500D03*
X173081710Y-103018500D03*
%TD*%
%TO.C,D34*%
X182667690Y-130247500D03*
X179939710Y-128672500D03*
%TD*%
D11*
%TO.C,D23*%
X109365000Y-78486000D03*
X106215000Y-78486000D03*
%TD*%
%TO.C,D7*%
X52000000Y-59550000D03*
X48850000Y-59550000D03*
%TD*%
D22*
%TO.C,R4*%
X157376500Y-101902600D03*
X155551500Y-101902600D03*
%TD*%
D11*
%TO.C,D12*%
X71130800Y-54715200D03*
X67980800Y-54715200D03*
%TD*%
%TO.C,D3*%
X33030400Y-83361800D03*
X29880400Y-83361800D03*
%TD*%
M02*
